<?xml version="1.0" encoding="UTF-8" standalone="no"?>
<!DOCTYPE svg PUBLIC "-//W3C//DTD SVG 1.1//EN"
 "http://www.w3.org/Graphics/SVG/1.1/DTD/svg11.dtd">
<!-- Generated by graphviz version 2.40.1 (0)
 -->
<!-- Title: %3 Pages: 1 -->
<svg width="857pt" height="332pt"
 viewBox="0.00 0.00 857.44 332.00" xmlns="http://www.w3.org/2000/svg" xmlns:xlink="http://www.w3.org/1999/xlink">
<g id="graph0" class="graph" transform="scale(1 1) rotate(0) translate(4 328)">
<title>%3</title>
<polygon fill="#ffffff" stroke="transparent" points="-4,4 -4,-328 853.4354,-328 853.4354,4 -4,4"/>
<!-- Программирование -->
<g id="node1" class="node">
<title>Программирование</title>
<ellipse fill="none" stroke="#000000" cx="539.6932" cy="-306" rx="105.8812" ry="18"/>
<text text-anchor="middle" x="539.6932" y="-302.3" font-family="Times-Roman" font-size="14.00" fill="#000000">Программирование</text>
</g>
<!-- Императивное -->
<g id="node2" class="node">
<title>Императивное</title>
<ellipse fill="none" stroke="#000000" cx="446.6932" cy="-234" rx="81.7856" ry="18"/>
<text text-anchor="middle" x="446.6932" y="-230.3" font-family="Times-Roman" font-size="14.00" fill="#000000">Императивное</text>
</g>
<!-- Программирование&#45;&gt;Императивное -->
<g id="edge1" class="edge">
<title>Программирование&#45;&gt;Императивное</title>
<path fill="none" stroke="#000000" d="M516.7044,-288.2022C504.791,-278.9789 490.0835,-267.5925 477.2286,-257.6403"/>
<polygon fill="#000000" stroke="#000000" points="479.1465,-254.6988 469.0966,-251.3446 474.8613,-260.2339 479.1465,-254.6988"/>
</g>
<!-- Декларативное -->
<g id="node3" class="node">
<title>Декларативное</title>
<ellipse fill="none" stroke="#000000" cx="633.6932" cy="-234" rx="87.1846" ry="18"/>
<text text-anchor="middle" x="633.6932" y="-230.3" font-family="Times-Roman" font-size="14.00" fill="#000000">Декларативное</text>
</g>
<!-- Программирование&#45;&gt;Декларативное -->
<g id="edge2" class="edge">
<title>Программирование&#45;&gt;Декларативное</title>
<path fill="none" stroke="#000000" d="M562.9292,-288.2022C574.8815,-279.0473 589.6163,-267.761 602.5404,-257.8617"/>
<polygon fill="#000000" stroke="#000000" points="604.914,-260.4524 610.7245,-251.593 600.6574,-254.8953 604.914,-260.4524"/>
</g>
<!-- Структурное -->
<g id="node4" class="node">
<title>Структурное</title>
<ellipse fill="none" stroke="#000000" cx="303.6932" cy="-162" rx="73.387" ry="18"/>
<text text-anchor="middle" x="303.6932" y="-158.3" font-family="Times-Roman" font-size="14.00" fill="#000000">Структурное</text>
</g>
<!-- Императивное&#45;&gt;Структурное -->
<g id="edge3" class="edge">
<title>Императивное&#45;&gt;Структурное</title>
<path fill="none" stroke="#000000" d="M413.8861,-217.4817C393.3953,-207.1647 366.8373,-193.7928 344.9284,-182.7618"/>
<polygon fill="#000000" stroke="#000000" points="346.3606,-179.5643 335.8548,-178.1933 343.2125,-185.8165 346.3606,-179.5643"/>
</g>
<!-- Не структурное -->
<g id="node5" class="node">
<title>Не структурное</title>
<ellipse fill="none" stroke="#000000" cx="482.6932" cy="-162" rx="87.1846" ry="18"/>
<text text-anchor="middle" x="482.6932" y="-158.3" font-family="Times-Roman" font-size="14.00" fill="#000000">Не структурное</text>
</g>
<!-- Императивное&#45;&gt;Не структурное -->
<g id="edge4" class="edge">
<title>Императивное&#45;&gt;Не структурное</title>
<path fill="none" stroke="#000000" d="M455.7775,-215.8314C459.8588,-207.6688 464.7582,-197.87 469.2518,-188.8827"/>
<polygon fill="#000000" stroke="#000000" points="472.3948,-190.423 473.7365,-179.9134 466.1338,-187.2924 472.3948,-190.423"/>
</g>
<!-- Функциональное -->
<g id="node8" class="node">
<title>Функциональное</title>
<ellipse fill="none" stroke="#000000" cx="589.6932" cy="-90" rx="93.6835" ry="18"/>
<text text-anchor="middle" x="589.6932" y="-86.3" font-family="Times-Roman" font-size="14.00" fill="#000000">Функциональное</text>
</g>
<!-- Декларативное&#45;&gt;Функциональное -->
<g id="edge8" class="edge">
<title>Декларативное&#45;&gt;Функциональное</title>
<path fill="none" stroke="#000000" d="M627.9656,-216.019C624.6397,-205.5253 620.3897,-192.0253 616.6932,-180 610.3224,-159.2748 603.2888,-135.8097 597.9979,-118.0366"/>
<polygon fill="#000000" stroke="#000000" points="601.3062,-116.882 595.1023,-108.2935 594.5962,-118.8762 601.3062,-116.882"/>
</g>
<!-- Логическое -->
<g id="node9" class="node">
<title>Логическое</title>
<ellipse fill="none" stroke="#000000" cx="693.6932" cy="-162" rx="67.6881" ry="18"/>
<text text-anchor="middle" x="693.6932" y="-158.3" font-family="Times-Roman" font-size="14.00" fill="#000000">Логическое</text>
</g>
<!-- Декларативное&#45;&gt;Логическое -->
<g id="edge9" class="edge">
<title>Декларативное&#45;&gt;Логическое</title>
<path fill="none" stroke="#000000" d="M648.5247,-216.2022C655.7905,-207.4832 664.6673,-196.8311 672.6224,-187.2849"/>
<polygon fill="#000000" stroke="#000000" points="675.3192,-189.5159 679.0323,-179.593 669.9417,-185.0346 675.3192,-189.5159"/>
</g>
<!-- Процедурное -->
<g id="node6" class="node">
<title>Процедурное</title>
<ellipse fill="none" stroke="#000000" cx="76.6932" cy="-90" rx="76.8869" ry="18"/>
<text text-anchor="middle" x="76.6932" y="-86.3" font-family="Times-Roman" font-size="14.00" fill="#000000">Процедурное</text>
</g>
<!-- Структурное&#45;&gt;Процедурное -->
<g id="edge5" class="edge">
<title>Структурное&#45;&gt;Процедурное</title>
<path fill="none" stroke="#000000" d="M258.5739,-147.689C222.2192,-136.158 170.9421,-119.8939 132.0962,-107.5728"/>
<polygon fill="#000000" stroke="#000000" points="133.0949,-104.2177 122.5046,-104.5305 130.9784,-110.8901 133.0949,-104.2177"/>
</g>
<!-- Объектно&#45;ориентированное -->
<g id="node7" class="node">
<title>Объектно&#45;ориентированное</title>
<ellipse fill="none" stroke="#000000" cx="320.6932" cy="-90" rx="148.6738" ry="18"/>
<text text-anchor="middle" x="320.6932" y="-86.3" font-family="Times-Roman" font-size="14.00" fill="#000000">Объектно&#45;ориентированное</text>
</g>
<!-- Структурное&#45;&gt;Объектно&#45;ориентированное -->
<g id="edge6" class="edge">
<title>Структурное&#45;&gt;Объектно&#45;ориентированное</title>
<path fill="none" stroke="#000000" d="M307.983,-143.8314C309.8012,-136.131 311.9631,-126.9743 313.9837,-118.4166"/>
<polygon fill="#000000" stroke="#000000" points="317.454,-118.95 316.3456,-108.4133 310.6413,-117.3414 317.454,-118.95"/>
</g>
<!-- Структурное&#45;&gt;Функциональное -->
<g id="edge7" class="edge">
<title>Структурное&#45;&gt;Функциональное</title>
<path fill="none" stroke="#000000" stroke-dasharray="5,2" d="M355.1546,-149.0447C402.0444,-137.2403 471.5874,-119.7329 522.778,-106.8458"/>
<polygon fill="#000000" stroke="#000000" points="523.9163,-110.1685 532.7592,-104.333 522.2073,-103.3803 523.9163,-110.1685"/>
</g>
<!-- На основе классов -->
<g id="node10" class="node">
<title>На основе классов</title>
<ellipse fill="none" stroke="#000000" cx="139.6932" cy="-18" rx="100.9827" ry="18"/>
<text text-anchor="middle" x="139.6932" y="-14.3" font-family="Times-Roman" font-size="14.00" fill="#000000">На основе классов</text>
</g>
<!-- Объектно&#45;ориентированное&#45;&gt;На основе классов -->
<g id="edge10" class="edge">
<title>Объектно&#45;ориентированное&#45;&gt;На основе классов</title>
<path fill="none" stroke="#000000" d="M277.3392,-72.7542C251.2376,-62.3713 217.8768,-49.1006 190.5356,-38.2246"/>
<polygon fill="#000000" stroke="#000000" points="191.7231,-34.9303 181.1376,-34.4862 189.1357,-41.4346 191.7231,-34.9303"/>
</g>
<!-- Прототипное -->
<g id="node11" class="node">
<title>Прототипное</title>
<ellipse fill="none" stroke="#000000" cx="333.6932" cy="-18" rx="75.2868" ry="18"/>
<text text-anchor="middle" x="333.6932" y="-14.3" font-family="Times-Roman" font-size="14.00" fill="#000000">Прототипное</text>
</g>
<!-- Объектно&#45;ориентированное&#45;&gt;Прототипное -->
<g id="edge11" class="edge">
<title>Объектно&#45;ориентированное&#45;&gt;Прототипное</title>
<path fill="none" stroke="#000000" d="M323.9736,-71.8314C325.364,-64.131 327.0173,-54.9743 328.5624,-46.4166"/>
<polygon fill="#000000" stroke="#000000" points="332.036,-46.8761 330.3686,-36.4133 325.1474,-45.6322 332.036,-46.8761"/>
</g>
<!-- Аппликативное -->
<g id="node12" class="node">
<title>Аппликативное</title>
<ellipse fill="none" stroke="#000000" cx="569.6932" cy="-18" rx="85.5853" ry="18"/>
<text text-anchor="middle" x="569.6932" y="-14.3" font-family="Times-Roman" font-size="14.00" fill="#000000">Аппликативное</text>
</g>
<!-- Функциональное&#45;&gt;Аппликативное -->
<g id="edge12" class="edge">
<title>Функциональное&#45;&gt;Аппликативное</title>
<path fill="none" stroke="#000000" d="M584.6464,-71.8314C582.4838,-64.0463 579.9079,-54.7729 577.5084,-46.1347"/>
<polygon fill="#000000" stroke="#000000" points="580.8568,-45.1117 574.808,-36.4133 574.1122,-46.9852 580.8568,-45.1117"/>
</g>
<!-- Комбинаторное -->
<g id="node13" class="node">
<title>Комбинаторное</title>
<ellipse fill="none" stroke="#000000" cx="761.6932" cy="-18" rx="87.9851" ry="18"/>
<text text-anchor="middle" x="761.6932" y="-14.3" font-family="Times-Roman" font-size="14.00" fill="#000000">Комбинаторное</text>
</g>
<!-- Функциональное&#45;&gt;Комбинаторное -->
<g id="edge13" class="edge">
<title>Функциональное&#45;&gt;Комбинаторное</title>
<path fill="none" stroke="#000000" d="M629.1535,-73.4817C654.2399,-62.9805 686.8869,-49.3143 713.5019,-38.1731"/>
<polygon fill="#000000" stroke="#000000" points="715.1364,-41.2832 723.0093,-34.1933 712.4334,-34.8261 715.1364,-41.2832"/>
</g>
</g>
</svg>
